<?xml version="1.0" standalone="no"?>
<!DOCTYPE svg PUBLIC "-//W3C//DTD SVG 20010904//EN"
 "http://www.w3.org/TR/2001/REC-SVG-20010904/DTD/svg10.dtd">
<svg version="1.0" xmlns="http://www.w3.org/2000/svg"
 width="1723.000000pt" height="1147.000000pt" viewBox="0 0 1723.000000 1147.000000"
 preserveAspectRatio="xMidYMid meet">

<g transform="translate(0.000000,1147.000000) scale(0.100000,-0.100000)"
fill="#000000" stroke="#000000" stroke-width="250">
<path fill="#000000" stroke="#000000" stroke-width="250" d="M5385 11269 c-137 -20 -318 -101 -576 -259 -238 -146 -433 -295 -724
-554 -293 -261 -567 -487 -710 -586 -370 -258 -718 -408 -1145 -494 -257 -52
-512 -47 -751 14 -111 29 -195 61 -323 126 -266 135 -437 280 -534 454 -54 97
-64 153 -66 376 -2 184 -4 204 -25 246 -59 122 -215 141 -304 37 -43 -50 -57
-97 -57 -196 0 -152 58 -328 171 -514 163 -272 298 -405 580 -575 255 -155
513 -239 809 -264 327 -29 719 70 1170 295 442 221 741 433 1455 1030 447 374
502 417 623 499 188 127 342 196 437 196 75 0 95 -19 102 -96 11 -127 -8 -204
-131 -512 -62 -158 -146 -370 -186 -472 -40 -102 -104 -264 -142 -360 -38 -96
-118 -319 -178 -495 -116 -344 -216 -625 -330 -935 -40 -107 -90 -247 -112
-310 -47 -139 -198 -690 -262 -960 -26 -107 -74 -296 -106 -420 -102 -389
-146 -616 -185 -951 -26 -228 -31 -383 -15 -469 12 -64 53 -156 83 -188 57
-62 152 -79 231 -42 125 59 337 296 528 590 157 242 435 739 803 1435 376 711
531 977 861 1475 245 371 461 658 800 1065 332 397 697 737 1034 960 139 93
369 211 487 251 178 61 352 35 408 -60 49 -84 57 -155 52 -446 -5 -289 -21
-432 -77 -671 -54 -228 -180 -624 -363 -1139 -132 -369 -241 -712 -347 -1085
-45 -159 -86 -297 -91 -306 -7 -14 -37 -17 -201 -22 -261 -7 -410 -36 -753
-147 -440 -143 -729 -324 -1086 -680 -529 -528 -980 -1292 -1233 -2090 -157
-495 -226 -822 -268 -1255 -19 -200 -16 -816 5 -984 39 -310 104 -537 213
-751 104 -204 235 -366 419 -514 220 -178 385 -264 625 -324 93 -23 125 -26
280 -27 147 0 191 4 277 23 282 63 582 188 879 365 263 157 395 260 610 479
534 542 956 1183 1414 2148 388 816 545 1201 797 1960 75 223 136 406 138 408
1 1 38 -26 81 -61 477 -383 783 -560 1329 -769 414 -159 582 -196 1105 -244
496 -45 769 -43 1245 7 640 67 1188 205 1590 398 279 135 528 315 775 562 166
165 250 287 368 534 108 226 123 323 66 452 -38 86 -72 131 -123 161 -79 46
-173 32 -236 -36 -46 -49 -57 -114 -57 -326 1 -219 -15 -310 -73 -431 -27 -57
-54 -90 -142 -176 -322 -314 -749 -562 -1183 -688 -156 -45 -263 -68 -488
-107 -275 -46 -475 -64 -731 -64 -257 0 -429 12 -690 46 -231 31 -361 61 -661
155 -590 185 -903 317 -1425 601 -209 113 -590 341 -623 373 -12 11 2 75 83
386 211 815 236 916 314 1234 44 182 105 452 136 600 153 734 160 957 33 1035
-90 55 -193 -10 -247 -155 -22 -60 -87 -278 -166 -560 -60 -216 -314 -1100
-412 -1430 -113 -385 -240 -785 -250 -785 -3 0 -85 49 -182 109 -97 60 -214
130 -261 156 -159 90 -456 231 -568 269 -62 21 -112 42 -112 46 0 4 96 298
214 652 350 1049 454 1418 510 1803 33 223 49 418 49 595 1 285 -28 435 -117
615 -96 193 -199 296 -391 391 -125 61 -187 79 -324 93 -190 20 -350 -13 -556
-114 -248 -121 -488 -301 -769 -575 -234 -229 -446 -475 -673 -780 -235 -315
-585 -898 -943 -1570 -159 -298 -255 -476 -703 -1300 -441 -811 -579 -1051
-778 -1345 -124 -183 -192 -264 -255 -301 -52 -31 -80 -28 -108 9 -32 43 -28
235 8 412 63 305 415 1270 760 2084 46 108 118 291 161 406 42 116 179 485
305 820 269 721 331 898 444 1266 112 365 127 433 133 644 9 286 -30 431 -142
533 -86 79 -198 110 -330 91z m2845 -4467 c0 -4 -26 -96 -59 -203 -71 -235
-121 -428 -156 -609 -15 -74 -53 -249 -86 -389 -32 -140 -70 -327 -84 -415
-14 -89 -39 -235 -55 -326 -51 -291 -119 -790 -130 -956 -16 -244 11 -455 76
-573 42 -77 109 -147 170 -177 74 -36 185 -39 255 -7 106 48 276 178 305 234
19 38 18 55 -7 80 -24 24 -30 22 -154 -36 -153 -73 -219 -82 -290 -40 -81 47
-112 167 -102 395 6 139 49 422 86 565 50 195 139 458 254 750 41 105 104 273
140 375 36 102 94 259 130 350 36 91 117 314 181 495 64 182 118 336 121 343
6 17 48 0 281 -113 250 -122 398 -222 707 -478 66 -55 107 -96 107 -107 0 -23
-236 -808 -308 -1025 -28 -82 -89 -258 -137 -390 -48 -132 -113 -314 -145
-405 -422 -1207 -982 -2199 -1547 -2740 -118 -114 -359 -319 -488 -417 -239
-181 -511 -321 -785 -407 -397 -124 -622 -100 -922 97 -149 97 -253 208 -357
380 -193 320 -294 800 -278 1322 12 377 80 847 177 1220 128 495 377 1106 620
1525 212 364 364 565 630 830 260 261 392 367 671 542 292 183 538 272 849
307 99 11 330 13 330 3z"/>
<path d="M10925 10256 c-39 -17 -122 -109 -146 -161 -24 -52 -24 -104 2 -195
23 -84 105 -249 152 -305 95 -115 246 -70 278 82 13 65 -1 352 -22 430 -31
115 -166 192 -264 149z"/>
</g>
</svg>
