<?xml version="1.0" standalone="no"?>
<!DOCTYPE svg PUBLIC "-//W3C//DTD SVG 20010904//EN"
 "http://www.w3.org/TR/2001/REC-SVG-20010904/DTD/svg10.dtd">
<svg version="1.0" xmlns="http://www.w3.org/2000/svg"
 width="263.000000pt" height="300.000000pt" viewBox="0 0 263.000000 300.000000"
 preserveAspectRatio="xMidYMid meet">

<g transform="translate(0.000000,300.000000) scale(0.100000,-0.100000)"
fill="#000000" stroke="#000" stroke-width="9" stroke-linejoin="round" stroke-linecap="round" vector-effect="non-scaling-stroke">
<path d="M785 2981 c-22 -10 -48 -28 -58 -39 -21 -24 -46 -87 -46 -117 0 -11
6 0 14 24 25 79 83 122 167 123 39 0 67 -8 122 -36 107 -55 112 -60 92 -88 -9
-12 -16 -29 -16 -38 1 -11 4 -10 12 5 6 11 20 26 30 33 31 22 21 37 -54 80
-137 78 -187 88 -263 53z"/>
<path d="M1280 2785 c-7 -9 -29 -15 -54 -15 -44 0 -79 -18 -96 -50 -9 -17 -5
-16 27 6 24 16 48 24 68 23 17 -2 42 5 55 14 31 22 42 21 90 -3 80 -41 223
-234 320 -435 32 -66 102 -239 155 -385 142 -390 238 -575 410 -787 79 -99
264 -292 265 -278 0 6 -48 63 -106 125 -266 288 -398 501 -523 845 -29 77 -72
196 -97 265 -91 249 -212 463 -336 596 -85 90 -146 117 -178 79z"/>
<path d="M1036 2735 c-3 -9 -6 -22 -5 -28 0 -7 5 -1 10 12 5 13 8 26 5 28 -2
2 -6 -3 -10 -12z"/>
<path d="M661 2697 c-2 -34 -44 -102 -101 -164 -65 -72 -116 -160 -124 -218
l-6 -40 13 40 c25 72 56 123 117 188 62 66 115 163 107 195 -4 16 -5 16 -6 -1z"/>
<path d="M1261 2694 c0 -11 3 -14 6 -6 3 7 2 16 -1 19 -3 4 -6 -2 -5 -13z"/>
<path d="M1032 2660 c0 -14 2 -19 5 -12 2 6 2 18 0 25 -3 6 -5 1 -5 -13z"/>
<path d="M1117 2652 c-9 -10 -17 -25 -17 -32 0 -9 7 -6 21 8 11 13 19 27 17
33 -2 6 -11 2 -21 -9z"/>
<path d="M1270 2663 c0 -21 47 -120 80 -169 18 -25 61 -78 97 -117 36 -40 78
-94 94 -122 16 -27 29 -43 29 -34 0 25 -55 103 -141 202 -52 59 -94 120 -120
172 -21 44 -39 75 -39 68z"/>
<path d="M959 2580 c-34 -27 -67 -50 -72 -50 -6 0 -19 7 -29 17 -24 22 -34 9
-15 -20 13 -20 13 -26 1 -42 -8 -10 -14 -24 -13 -29 0 -6 7 -1 16 12 9 13 30
29 47 36 17 7 51 31 76 53 25 22 53 42 63 46 9 3 17 11 17 17 0 22 -31 8 -91
-40z"/>
<path d="M1089 2529 c-9 -18 -7 -25 11 -43 22 -20 22 -20 15 -1 -5 11 -9 30
-9 43 -1 27 -2 27 -17 1z"/>
<path d="M1121 2452 c-1 -7 4 -23 10 -34 9 -17 17 -19 50 -14 35 6 41 3 49
-16 9 -20 10 -19 5 7 -8 40 -19 49 -43 36 -32 -17 -52 -13 -62 12 -5 12 -9 16
-9 9z"/>
<path d="M850 2422 c0 -7 7 -27 16 -44 9 -16 34 -74 56 -127 21 -53 37 -82 33
-66 -14 64 -104 267 -105 237z"/>
<path d="M1361 2394 c0 -11 3 -14 6 -6 3 7 2 16 -1 19 -3 4 -6 -2 -5 -13z"/>
<path d="M1360 2361 c0 -7 17 -52 39 -100 21 -47 41 -93 45 -101 3 -8 4 -1 0
15 -6 35 -84 206 -84 186z"/>
<path d="M1232 2207 c-7 -19 -36 -65 -65 -102 -98 -126 -107 -138 -107 -149 0
-6 10 2 22 18 12 15 43 54 70 85 50 58 103 152 96 171 -2 6 -9 -4 -16 -23z"/>
<path d="M1266 2178 c-8 -13 -17 -36 -21 -53 -4 -24 -4 -26 4 -9 5 12 21 30
35 42 14 11 26 25 26 31 0 19 -29 12 -44 -11z"/>
<path d="M961 2134 c0 -11 3 -14 6 -6 3 7 2 16 -1 19 -3 4 -6 -2 -5 -13z"/>
<path d="M442 2100 c0 -14 4 -36 8 -50 6 -20 8 -21 8 -5 0 11 -4 34 -8 50 -7
27 -8 27 -8 5z"/>
<path d="M1556 2054 c-4 -14 -5 -28 -3 -31 3 -2 8 8 11 23 4 14 5 28 3 31 -3
2 -8 -8 -11 -23z"/>
<path d="M462 2005 c0 -11 3 -29 8 -40 11 -25 11 1 0 35 -6 20 -8 21 -8 5z"/>
<path d="M1407 1889 c-21 -71 -37 -134 -35 -140 2 -6 21 48 42 120 20 72 36
135 34 141 -2 5 -20 -50 -41 -121z"/>
<path d="M1377 1983 c-17 -33 -38 -117 -68 -273 -30 -155 -57 -184 -231 -240
-97 -32 -138 -53 -138 -73 0 -17 -66 -98 -74 -90 -3 3 -6 0 -6 -7 0 -7 -17
-40 -39 -74 -94 -149 -135 -255 -201 -516 -77 -301 -129 -420 -230 -519 -86
-85 -189 -131 -353 -156 -41 -7 -53 -35 -14 -35 55 1 169 33 243 70 101 49
173 123 231 236 52 102 72 162 128 385 79 314 143 453 301 650 50 63 56 67
121 84 89 24 163 59 207 98 34 31 36 38 71 210 19 98 45 198 57 223 23 49 18
74 -5 27z"/>
<path d="M1232 1930 c0 -14 2 -19 5 -12 2 6 2 18 0 25 -3 6 -5 1 -5 -13z"/>
<path d="M481 1930 c0 -8 8 -46 18 -85 11 -38 19 -63 20 -55 0 8 -8 47 -18 85
-11 39 -19 63 -20 55z"/>
<path d="M1060 1901 c0 -24 38 -76 80 -109 27 -22 40 -28 40 -18 0 8 -19 29
-41 47 -23 18 -50 46 -60 63 -11 17 -19 25 -19 17z"/>
<path d="M1221 1854 c0 -11 3 -14 6 -6 3 7 2 16 -1 19 -3 4 -6 -2 -5 -13z"/>
<path d="M962 1840 c0 -14 2 -19 5 -12 2 6 2 18 0 25 -3 6 -5 1 -5 -13z"/>
<path d="M1212 1780 c0 -19 2 -27 5 -17 2 9 2 25 0 35 -3 9 -5 1 -5 -18z"/>
<path d="M522 1750 c0 -14 2 -19 5 -12 2 6 2 18 0 25 -3 6 -5 1 -5 -13z"/>
<path d="M951 1744 c0 -11 3 -14 6 -6 3 7 2 16 -1 19 -3 4 -6 -2 -5 -13z"/>
<path d="M532 1700 c0 -14 2 -19 5 -12 2 6 2 18 0 25 -3 6 -5 1 -5 -13z"/>
<path d="M1202 1675 c0 -16 2 -22 5 -12 2 9 2 23 0 30 -3 6 -5 -1 -5 -18z"/>
<path d="M1360 1678 c0 -4 4 -18 9 -31 8 -21 18 -25 78 -31 155 -16 303 -71
426 -160 80 -57 194 -175 242 -251 62 -96 139 -267 198 -440 97 -281 147 -394
200 -443 19 -18 34 -23 68 -20 59 4 65 28 7 28 -24 0 -54 7 -66 16 -49 34
-104 151 -193 412 -64 185 -110 294 -168 400 -156 283 -405 454 -711 488 -41
4 -70 13 -77 23 -7 9 -13 13 -13 9z"/>
<path d="M542 1650 c0 -14 2 -19 5 -12 2 6 2 18 0 25 -3 6 -5 1 -5 -13z"/>
<path d="M1169 1621 c-68 -53 -191 -131 -200 -126 -5 4 -9 2 -9 -4 0 -5 -16
-15 -36 -21 -36 -12 -55 -41 -53 -83 1 -17 3 -16 10 8 7 24 18 34 57 47 70 25
262 156 262 179 0 23 -2 23 -31 0z"/>
<path d="M952 1545 c0 -16 2 -22 5 -12 2 9 2 23 0 30 -3 6 -5 -1 -5 -18z"/>
</g>
</svg>
